<svg width="40" height="40" viewBox="0 0 40 40" fill="none" xmlns="http://www.w3.org/2000/svg">
<g id="UFT Mobile_ 40x40">
<path id="Shape" fill-rule="evenodd" clip-rule="evenodd" d="M20 27C22.2091 27 24 28.7909 24 31C24 33.2091 22.2091 35 20 35C17.7909 35 16 33.2091 16 31C16 28.7909 17.7909 27 20 27ZM27.5 16C29.433 16 31 17.567 31 19.5C31 21.433 29.433 23 27.5 23H12.5C10.567 23 9 21.433 9 19.5C9 17.567 10.567 16 12.5 16H27.5ZM32.5 5C34.433 5 36 6.567 36 8.5C36 10.433 34.433 12 32.5 12H7.5C5.567 12 4 10.433 4 8.5C4 6.567 5.567 5 7.5 5H32.5Z" fill="#00ABF3"/>
</g>
</svg>
