<svg xmlns="http://www.w3.org/2000/svg" width="900" height="900" viewBox="0 0 900 900" version="1.1">
	<path d="M 476 75.311 C 476 75.502, 482.300 81.970, 490 89.684 C 500.157 99.859, 504 104.363, 504 106.092 C 504 107.820, 500.364 112.081, 490.750 121.617 L 477.500 134.760 490.500 135.440 C 521.276 137.048, 550.124 143.125, 576.837 153.627 C 587.920 157.983, 606.809 166.964, 613.681 171.143 L 616.862 173.078 611.352 181.289 C 573.872 237.142, 580.426 313.549, 626.877 362.286 C 656.739 393.617, 696.031 409.503, 739.320 407.747 L 752.228 407.224 751.536 419.862 C 749.618 454.929, 743.183 483.750, 730.354 514.729 L 724.876 527.957 728.550 541.729 C 735.200 566.653, 734.949 565.949, 737.390 566.562 C 739.461 567.082, 744.691 565.912, 768 559.714 L 776.500 557.454 779.419 551.477 C 788.533 532.817, 798.469 503.997, 803.371 482 C 808.943 457.001, 811.175 435.599, 811.159 407.335 L 811.146 385.169 815.323 382.416 C 846.499 361.864, 868.985 327.370, 876.628 288.374 C 878.825 277.168, 879.081 251.056, 877.112 239 C 870.508 198.551, 846.471 161.631, 812.500 139.759 C 787.831 123.875, 762.300 116.465, 732.500 116.540 C 709.459 116.598, 688.464 121.194, 670.992 130.007 L 665.483 132.785 654.492 125.864 C 642.114 118.072, 611.855 102.867, 599 97.981 C 569.612 86.810, 538.294 79.461, 510 77.095 C 495.427 75.876, 476 74.857, 476 75.311 M 438.500 77.515 C 388.153 84.009, 343.089 99.814, 302.066 125.365 L 289.631 133.110 281.566 129.416 C 270.495 124.347, 261.782 121.487, 249.194 118.791 C 235.137 115.780, 207.424 115.547, 193.626 118.325 C 145.872 127.937, 108.355 157.055, 88.023 200.286 C 77.865 221.884, 74.582 237.111, 74.607 262.500 C 74.622 277.315, 75.021 282.338, 76.860 290.887 C 82.827 318.633, 95.662 343.026, 114.972 363.323 C 122.665 371.409, 141.902 387, 144.186 387 C 144.750 387, 144.856 391.658, 144.454 398.750 C 143.722 411.661, 145.265 439.859, 147.560 455.500 C 151.167 480.090, 156.765 502.249, 164.989 524.500 C 172.423 544.611, 188.968 578.365, 190.595 576.738 C 190.803 576.531, 193.188 568.091, 195.897 557.982 C 201.095 538.582, 202.207 536.531, 206.912 537.669 C 208.335 538.014, 216.588 540.174, 225.250 542.469 C 233.913 544.765, 241 546.293, 241 545.866 C 241 545.438, 239.594 542.706, 237.875 539.794 C 225.125 518.191, 213.205 483.455, 208.092 453 C 205.887 439.869, 203.674 409.956, 204.827 408.859 C 205.197 408.507, 213.825 407.975, 224 407.678 C 249.913 406.919, 263.911 403.481, 286 392.450 C 325.679 372.635, 354.238 335.341, 363.688 291 C 366.478 277.911, 366.230 243.869, 363.255 231.456 C 358.698 212.445, 349.768 191.817, 340.487 178.862 L 337.164 174.224 346.358 169.130 C 376.572 152.393, 408.349 142.179, 445 137.425 L 457.500 135.804 471.250 122.165 C 481.413 112.085, 485 107.892, 485 106.094 C 485 104.307, 481.358 99.984, 471.296 89.830 L 457.592 76 453.046 76.112 C 450.546 76.174, 444 76.805, 438.500 77.515 M 649 241.127 C 637.837 244.453, 631.788 256.880, 635.358 269.158 C 638.015 278.300, 645.794 284, 655.612 284 C 660.532 284, 670.176 280.698, 672.129 278.344 C 673.493 276.701, 674.164 268.518, 673.325 263.750 L 672.841 261 663.921 261 L 655 261 655 264.500 L 655 268 660 268 C 664.654 268, 665 268.171, 665 270.477 C 665 273.497, 661.947 275.671, 656.500 276.529 C 653.278 277.037, 651.820 276.700, 649 274.795 C 641.107 269.463, 641.026 253.624, 648.872 249.566 C 653.876 246.978, 658.684 247.530, 662.256 251.102 C 664.878 253.724, 665.890 254.117, 668.803 253.645 C 670.697 253.337, 672.454 252.880, 672.705 252.628 C 673.284 252.049, 671.244 248.074, 669.124 245.648 C 665.333 241.310, 655.670 239.140, 649 241.127 M 164 262.057 L 164 283.115 168.250 282.807 L 172.500 282.500 173 274 L 173.500 265.500 176.488 265.825 C 180.414 266.252, 181.339 267.111, 187.149 275.721 C 192.047 282.979, 192.074 283, 196.626 283 L 201.191 283 197.990 277.250 C 196.229 274.087, 193.226 269.870, 191.316 267.878 L 187.844 264.256 190.507 263.588 C 195.078 262.440, 198 258.342, 198 253.076 C 198 243.509, 193.436 241, 176.032 241 L 164 241 164 262.057 M 207 262 L 207 283 222.500 283 L 238 283 238 279.500 L 238 276 226.500 276 L 215 276 215 269.956 C 215 265.701, 215.370 263.960, 216.250 264.075 C 216.938 264.164, 221.662 264.184, 226.750 264.118 L 236 264 236 261.035 L 236 258.070 225.750 257.785 L 215.500 257.500 215.195 252.750 L 214.890 248 225.945 248 L 237 248 237 244.500 L 237 241 222 241 L 207 241 207 262 M 246 262 L 246 283 256.750 282.984 C 266.003 282.969, 268.057 282.656, 271.500 280.729 C 277.364 277.449, 280 271.641, 280 262 C 280 251.934, 277.377 246.447, 271.038 243.250 C 267.273 241.352, 264.969 241, 256.288 241 L 246 241 246 262 M 681 262 L 681 283 685.500 283 L 690 283 690 274.500 L 690 266 693.134 266 C 696.682 266, 698.893 268.146, 704.722 277.250 C 708.365 282.939, 708.455 283, 713.202 283 C 715.841 283, 718 282.782, 718 282.515 C 718 281.155, 711.234 271.022, 708.140 267.750 C 704.799 264.217, 704.726 264, 706.874 264 C 708.128 264, 710.469 262.685, 712.077 261.077 C 714.519 258.635, 715 257.341, 715 253.212 C 715 243.471, 710.422 241.015, 692.250 241.006 L 681 241 681 262 M 723 262 L 723 283 739 283 L 755 283 755 279.500 L 755 276 743.500 276 L 732 276 732 270.500 L 732 265 742.500 265 L 753 265 753 261.500 C 753 257.546, 753.849 257.779, 740.250 257.994 L 732 258.124 732 253.062 L 732 248 743 248 L 754 248 754 244.500 L 754 241 738.500 241 L 723 241 723 262 M 762 262 L 762 283 778 283 L 794 283 794 279.500 L 794 276 782.500 276 L 771 276 771 270.535 L 771 265.070 781.250 264.785 L 791.500 264.500 791.813 261.250 C 792.021 259.097, 791.683 257.978, 790.813 257.934 C 790.091 257.898, 785.563 257.925, 780.752 257.994 C 775.940 258.064, 771.659 257.907, 771.238 257.647 C 770.816 257.387, 770.636 255.109, 770.837 252.587 L 771.201 248 782.101 248 L 793 248 793 244.500 L 793 241 777.500 241 L 762 241 762 262 M 801 262 L 801 283 804.971 283 L 808.942 283 809.221 269.750 L 809.500 256.500 812 260.726 C 813.375 263.051, 816.961 269.013, 819.969 273.976 L 825.438 283 829.719 283 L 834 283 834 262 L 834 241 829.980 241 L 825.961 241 826.065 254.081 C 826.123 261.276, 826.020 267.302, 825.835 267.472 C 825.651 267.642, 821.900 261.767, 817.500 254.417 L 809.500 241.054 805.250 241.027 L 801 241 801 262 M 173 253.500 L 173 259 179.277 259 C 186.451 259, 190 257.184, 190 253.515 C 190 249.347, 187.541 248, 179.929 248 L 173 248 173 253.500 M 254 262 L 254 276 259.944 276 C 268.692 276, 271.076 273.663, 271.736 264.446 C 272.618 252.115, 269.415 248, 258.935 248 L 254 248 254 262 M 690 253.387 L 690 259 696.500 259 C 701.667 259, 703.410 258.590, 705 257 C 707.358 254.642, 707.505 253.072, 705.609 250.480 C 704.527 249, 702.638 248.488, 697.109 248.176 L 690 247.774 690 253.387 M 362.206 386.237 L 362.500 393.500 374.750 393.781 L 387 394.062 387 429.031 L 387 464 396 464 L 405 464 405 429.031 L 405 394.062 417.250 393.781 L 429.500 393.500 429.500 386.500 L 429.500 379.500 395.706 379.237 L 361.912 378.973 362.206 386.237 M 440 421.475 L 440 464.164 462.775 463.832 L 485.550 463.500 492.331 460.160 C 504.346 454.241, 509.937 443.802, 510.765 425.743 C 511.565 408.270, 507.882 396.038, 499.338 387.799 C 491.661 380.397, 488.395 379.628, 462.750 379.182 L 440 378.786 440 421.475 M 525 421.487 L 525 464.164 547.750 463.810 C 566.837 463.513, 571.144 463.170, 574.500 461.682 C 589.438 455.056, 596.011 442.962, 595.988 422.145 C 595.970 406.285, 593.100 397.228, 585.524 389.129 C 582.895 386.318, 578.696 383.219, 575.714 381.889 C 570.854 379.721, 568.955 379.538, 547.750 379.187 L 525 378.810 525 421.487 M 458 422.150 L 458 450.301 469.087 449.627 C 475.185 449.257, 481.643 448.340, 483.439 447.590 C 490.746 444.537, 493.385 436.599, 492.845 419.298 C 492.524 409.005, 492.160 406.926, 489.989 403 C 486.148 396.055, 481.192 394, 468.288 394 L 458 394 458 422.150 M 543 421.961 L 543 449.922 554 449.559 C 567.333 449.119, 571.275 447.497, 575 440.916 C 577.349 436.767, 577.500 435.622, 577.500 422 C 577.500 408.400, 577.345 407.221, 575 403 C 571.141 396.054, 566.186 394, 553.288 394 L 543 394 543 421.961 M 459.845 536.070 C 436.305 538.981, 410.150 549.576, 390.880 564.007 C 373.512 577.014, 358.682 594.534, 348.698 613.841 C 343.002 624.856, 336.672 641.339, 337.731 642.398 C 338.062 642.729, 337.657 643, 336.831 643 C 335.278 643, 317.933 631.441, 310 625.120 C 289.264 608.596, 268.892 587.494, 256.179 569.370 L 251.884 563.247 236.192 558.996 C 217.710 553.990, 212.861 553.258, 211.224 555.229 C 210.585 556, 208.261 563.350, 206.058 571.565 C 203.856 579.779, 201.631 587.937, 201.113 589.693 C 200.267 592.563, 200.629 593.571, 204.704 599.693 C 212.724 611.742, 228.157 630.144, 241.500 643.568 C 267.096 669.318, 295.683 690.274, 325.952 705.476 C 333.394 709.214, 335.063 710.480, 335.540 712.751 C 335.858 714.263, 337.687 720.388, 339.604 726.362 C 351.804 764.374, 379.118 795.410, 415.446 812.537 C 437.694 823.026, 452.275 826.301, 477 826.364 C 497.189 826.415, 507.606 824.862, 523.900 819.374 C 568.216 804.448, 602.352 770.121, 616.398 726.356 C 618.314 720.385, 620.142 714.262, 620.460 712.749 C 620.942 710.459, 622.664 709.180, 630.769 705.095 C 676.203 682.200, 718.360 645.667, 749.735 602 C 758.662 589.577, 767.542 575.209, 766.771 574.438 C 766.565 574.231, 758.117 576.248, 748 578.919 C 733.866 582.652, 729.100 583.547, 727.426 582.784 C 725.750 582.021, 724.732 579.798, 723.011 573.146 C 717.811 553.049, 715.668 545.940, 715.036 546.696 C 714.667 547.138, 710.842 552.853, 706.538 559.397 C 689.852 584.757, 668.654 607.683, 645.518 625.391 C 631.146 636.390, 620.232 643.566, 619.297 642.630 C 619.048 642.382, 617.375 637.976, 615.578 632.839 C 607.599 610.031, 593.146 588.182, 575.932 572.904 C 555.474 554.747, 529.797 542.013, 504.500 537.478 C 493.548 535.515, 470.273 534.781, 459.845 536.070 M 340.983 659.223 C 340.974 659.375, 340.862 669.063, 340.733 680.751 L 340.500 702.001 344.750 702.001 L 349 702 349 693 C 349 684.204, 349.053 684, 351.365 684 C 354.794 684, 358.016 686.931, 363.385 694.932 L 368.127 702 388.438 702 L 408.750 702 409.371 698.897 C 409.712 697.191, 409.789 695.468, 409.542 695.068 C 409.295 694.668, 404.400 694.436, 398.663 694.552 C 392.927 694.668, 387.704 694.435, 387.056 694.034 C 386.335 693.589, 385.999 691.402, 386.189 688.403 L 386.500 683.500 396.750 683.215 L 407 682.930 407 679.465 L 407 676 396.500 676 L 386 676 386 671.500 L 386 667 397.560 667 L 409.121 667 408.810 663.250 L 408.500 659.500 393 659.500 L 377.500 659.500 377.500 679.251 C 377.500 690.113, 377.275 698.998, 377 698.993 C 376.725 698.988, 375.453 697.151, 374.172 694.909 C 372.892 692.668, 370.268 689.089, 368.341 686.956 L 364.838 683.079 367.324 682.455 C 373.464 680.914, 376.770 672.323, 373.589 666.172 C 370.836 660.848, 368.703 660.113, 354.221 659.503 C 346.950 659.196, 340.992 659.070, 340.983 659.223 M 411.667 659.667 C 411.300 660.033, 411 669.708, 411 681.167 L 411 702 415.500 702 L 420 702 420 693 L 420 684 428.500 684 L 437 684 437 680.500 L 437 677 428.500 677 L 420 677 420 672 L 420 667 430 667 L 440 667 440 663 L 440 659 426.167 659 C 418.558 659, 412.033 659.300, 411.667 659.667 M 451.354 659.765 C 450.723 660.169, 448.111 665.900, 445.549 672.500 C 442.988 679.100, 439.566 687.818, 437.946 691.873 C 434.037 701.657, 434.083 702, 439.324 702 C 443.610 702, 443.662 701.957, 445.124 697.250 L 446.599 692.500 454.920 692.500 L 463.241 692.500 464.995 697 C 466.695 701.363, 466.892 701.509, 471.460 701.808 C 475.978 702.104, 476.142 702.022, 475.444 699.808 C 473.145 692.519, 459.735 660.451, 458.715 659.803 C 457.175 658.824, 452.856 658.802, 451.354 659.765 M 485.481 660.394 C 481.197 662.261, 476.282 668.243, 474.931 673.237 C 473.065 680.133, 474.278 689.512, 477.658 694.321 C 481.658 700.013, 485.819 702.199, 492.772 702.262 C 501.284 702.340, 507.958 697.999, 509.642 691.291 C 510.378 688.358, 510.358 688.339, 505.766 687.481 C 502.401 686.852, 501.939 687.031, 501.080 689.291 C 498.858 695.134, 491.425 696.804, 486.785 692.502 C 483.585 689.534, 482.530 684.861, 483.320 677.152 C 483.940 671.102, 486.562 667.650, 491.474 666.417 C 494.594 665.634, 499.242 667.909, 500.500 670.834 C 501.382 672.885, 501.968 673.086, 505.462 672.534 C 507.642 672.190, 509.615 671.718, 509.847 671.486 C 510.994 670.339, 507.202 664.434, 503.680 661.883 C 500.395 659.504, 498.721 659.007, 494.100 659.039 C 491.020 659.061, 487.142 659.670, 485.481 660.394 M 509.369 660.479 C 509.079 661.236, 508.990 662.900, 509.171 664.177 C 509.470 666.286, 510.075 666.527, 515.750 666.798 L 522 667.095 522 684.548 L 522 702 526 702 L 530 702 530 684.500 L 530 667 536.560 667 L 543.121 667 542.810 663.250 L 542.500 659.500 526.199 659.302 C 513.153 659.144, 509.792 659.379, 509.369 660.479 M 551.408 660.520 C 547.056 662.430, 542.289 668.215, 540.931 673.237 C 539.330 679.156, 540.325 688.047, 543.164 693.194 C 549.840 705.297, 570.494 705.574, 577.453 693.654 C 584.248 682.016, 580.052 664.973, 569.284 660.474 C 564.954 658.665, 555.580 658.689, 551.408 660.520 M 582.694 659.640 C 582.312 660.021, 582 669.708, 582 681.167 L 582 702 586.500 702 L 591 702 591 693 C 591 684.301, 591.076 684, 593.277 684 C 596.799 684, 599.153 686.176, 604.535 694.405 L 609.500 701.998 614.250 701.999 C 616.862 702, 619 701.620, 619 701.155 C 619 699.572, 610.868 687.507, 608.413 685.450 L 605.968 683.399 609.824 681.698 C 614.307 679.720, 616 676.652, 616 670.504 C 616 665.801, 613.375 661.835, 609.500 660.684 C 606.377 659.755, 583.470 658.863, 582.694 659.640 M 556.500 666.954 C 550.929 669.259, 547.876 677.196, 549.412 685.385 C 550.355 690.411, 555.230 695, 559.627 695 C 567.974 695, 572.874 688.025, 571.669 677.856 C 570.992 672.134, 569.054 669.382, 564.282 667.362 C 560.665 665.831, 559.378 665.764, 556.500 666.954 M 349 672 L 349 677 356.521 677 C 363.574 677, 364.114 676.844, 365.182 674.500 C 366.034 672.630, 366.034 671.370, 365.182 669.500 C 364.114 667.156, 363.574 667, 356.521 667 L 349 667 349 672 M 591 672 L 591 677 597.800 677 C 605.307 677, 607 676.049, 607 671.835 C 607 668.182, 604.572 667, 597.066 667 L 591 667 591 672 M 452.448 676.750 C 451.394 679.913, 450.379 683.063, 450.192 683.750 C 449.954 684.630, 451.354 685, 454.927 685 C 457.717 685, 460 684.663, 460 684.250 C 460.001 682.773, 455.506 671, 454.942 671 C 454.625 671, 453.503 673.587, 452.448 676.750 M 1.762 899.707 C 3.006 899.946, 4.806 899.937, 5.762 899.687 C 6.718 899.437, 5.700 899.241, 3.500 899.252 C 1.300 899.263, 0.518 899.468, 1.762 899.707 M 12.750 899.737 C 15.638 899.939, 20.363 899.939, 23.250 899.737 C 26.138 899.535, 23.775 899.370, 18 899.370 C 12.225 899.370, 9.863 899.535, 12.750 899.737 " stroke="none" fill="black" fill-rule="evenodd"/>
</svg>