<svg width="400" height="400" viewBox="0 0 400 400" xmlns="http://www.w3.org/2000/svg">
    <defs>
        <radialGradient id="grad" cx="59%" cy="59%" r="70%">
            <stop offset="0%" stop-color="gold"/>
            <stop offset="100%" stop-color="red" stop-opacity=".2"/>
        </radialGradient>
    </defs>
    <g transform="translate (400, 0) scale(-1, 1)">
        <rect x="0" y="0" width="400" height="400" rx="20" ry="20" fill="#313335"/>
        <rect x="0" y="0" width="400" height="400" rx="20" ry="20" style="fill:url(#grad);"/>
        <path d="M387.582,118.744c-1.158-6.343-154.701-90.955-202.235-94.213C133.374,20.967,0,22.094,0,22.094l0.11,92.547
		c8.292-2.068,45.414,0.637,57.853,11.522c14.839,12.987,31.086,22.371,49.279,30.471c16.729,7.447,41.665,22.001,47.479,25.286
		c34.742,19.634,38.97,24.751,56.517,33.968c2.455,1.29,4.845,1.903,7.105,1.966c0.354,2.026,0.803,3.988,1.342,5.857
		c-3.42,1.206-5.539,2.35-5.539,2.35c-1.787,0.897-3.14,2.473-3.76,4.372c-5.603,17.146-5.603,32.439,0,49.588
		c0.617,1.901,1.973,3.476,3.76,4.372c4.059,2.038,7.699,3.509,11.117,4.468V305c0,0.994,0.396,1.946,1.1,2.649l3.424,3.426
		l-3.424,3.425c-0.703,0.703-1.1,1.655-1.1,2.649v0.914c0,0.994,0.396,1.947,1.1,2.65l3.424,3.425l-3.424,3.424
		c-0.703,0.703-1.1,1.657-1.1,2.651v0.843c0,0.994,0.396,1.947,1.1,2.65l3.424,3.425l-3.424,3.424c-0.703,0.703-1.1,1.657-1.1,2.65
		v12.913c0,0.989,0.394,1.94,1.092,2.644l5.965,5.996c0.705,0.708,1.66,1.104,2.658,1.104c0.996,0,1.955-0.396,2.656-1.104
		l5.967-5.996c0.697-0.702,1.09-1.653,1.09-2.644V288.86c3.422-0.959,7.062-2.43,11.119-4.468c1.787-0.896,3.143-2.471,3.764-4.372
		c5.596-17.146,5.596-32.439,0-49.587c-0.621-1.901-1.977-3.476-3.762-4.373c0,0-2.111-1.139-5.52-2.342
		c1.555-5.387,2.35-11.564,2.35-17.718c0-2.496-0.133-4.994-0.393-7.444c10.531,5.526,21.172,5,21.391-1.443
		c0.045-1.354,0.654-52.125-2.996-74.408c-0.953-5.814-3.473-13.416-12.244-24.457c4.455,1.915,8.768,3.718,13.141,5.341
		c25.312,9.392,71.77,34.13,91.158,35.32C372.943,139.539,389.842,131.139,387.582,118.744z M210.739,157.572
		c-14.445-9.514-26.774-22.117-32.109-31.201c-7.031-11.976,13.083-30.573,27.16-19.171c11.226,9.891,19.694,18.796,21.665,23.304
		c2.812,18.03,4.387,39.01,4.426,39.286c0.104,0.771,0.24,1.519,0.389,2.259c-1.576,0.398-3.03,1.138-4.361,2.168
		C224.048,168.38,218.465,162.661,210.739,157.572z M248.479,236.283c0,3.049-6.043,5.521-13.5,5.521
		c-7.455,0-13.5-2.472-13.5-5.521c0-1.149,0.86-2.217,2.33-3.101c2.828,4.374,6.564,7.118,11.183,7.118
		c4.614,0,8.349-2.741,11.177-7.108C247.627,234.075,248.479,235.137,248.479,236.283z M234.98,220.942
		c-1.369,0-2.707,0.077-4.006,0.207c-0.715-2.25-1.343-5.006-1.722-8.277c5.097-5.742,7.343-15.772,4.263-26.643
		c0.584-1.16,1.137-1.967,1.598-2.425c1.845,1.044,6.003,8.637,6.003,22.198c0,6.405-0.933,11.464-2.106,15.148
		C237.703,221.019,236.357,220.942,234.98,220.942z"/>
    </g>
</svg>
