<svg width="40" height="40" version="1.1" viewBox="0 0 10.583 10.583" xmlns="http://www.w3.org/2000/svg">
  <g transform="matrix(.19743 0 0 .19743 -6.2648 -15.924)">
    <g transform="matrix(.091644 0 0 .091644 21.171 85.815)">
      <path d="m215.94 400.89-34.048 39.722h-34.048l34.048-39.722-34.048-39.722h34.048z" fill="#a0a0a0"/>
      <path d="m204.59 400.89-34.048 39.722h-22.699l34.048-39.722-34.048-39.722h22.699z" fill="#8c8c8c"/>
      <path d="m193.24 400.89-34.048 39.722h-11.349l34.048-39.722-34.048-39.722h11.349z" fill="#6e6e6e" fill-opacity=".94118"/>
    </g>
    <g fill="#6e6e6e" stroke-width=".19142" aria-label="arena">
      <path d="m49.202 126.08h0.09724v0.12155h-3.5736v-0.12155h0.09724q0.2431 0 0.3525-0.14586 0.1094-0.14586 0.1094-0.26742 0-0.12155-0.04862-0.25525l-0.47405-1.1183h-2.5769l-0.48621 1.1304q-0.04862 0.12155-0.04862 0.25526 0 0.12155 0.1094 0.26741 0.12155 0.13371 0.36466 0.13371h0.09724v0.12155h-2.431v-0.12155h0.09724q0.25526 0 0.51052-0.15802 0.25526-0.15801 0.41328-0.47405l2.5161-5.3969q0.53483-1.2034 0.55914-1.4829h0.1094l3.2576 6.8312q0.15802 0.3525 0.41328 0.52267 0.26741 0.15802 0.53483 0.15802zm-5.8102-2.2609h2.1636l-1.0697-2.5404z"/>
      <path d="m52.584 119.4h-0.38897v6.029q0 0.29172 0.19448 0.47405 0.20664 0.17017 0.4619 0.17017h0.13371v0.12155h-3.3427v-0.12155h0.14586q0.26741 0 0.44974-0.18233 0.19448-0.18233 0.19448-0.44974v-5.7859q0-0.26741-0.19448-0.44974-0.18233-0.18233-0.43759-0.18233h-0.15802v-0.12155h3.7316q1.094 0 1.8354 0.42543 0.82655 0.47405 0.82655 1.568 0 0.705-0.42543 1.2763-0.42543 0.55914-1.2641 0.68069 0.32819 0.1094 0.64422 0.41328 0.32819 0.30387 0.52267 0.61991 0.38896 0.69284 0.8144 1.2763 0.42543 0.57129 0.68069 0.74147 0.26741 0.17017 0.64422 0.17017v0.12155h-1.021q-1.0089 0-1.5559-0.2431-0.53483-0.24311-0.96026-0.92379-0.65638-1.0454-0.8144-1.6531-0.14586-0.36465-0.3525-0.54698-0.19448-0.18233-0.37681-0.20664v-0.0972h0.30388q1.0332-0.0122 1.2641-1.2155 0.04862-0.18232 0.04862-0.31603t-0.01215-0.36466q-0.01215-0.2431-0.15802-0.53482-0.13371-0.30388-0.3525-0.43759-0.37681-0.23095-0.77793-0.2431-0.13371-0.0122-0.30388-0.0122z"/>
      <path d="m63.664 126.2h-5.7251v-0.12155h0.14586q0.27957 0 0.4619-0.18233 0.19448-0.18233 0.20664-0.44974v-5.7859q-0.01215-0.26741-0.20664-0.44974-0.18233-0.18233-0.4619-0.18233h-0.14586v-0.12155h4.2786q0.32819 0 0.71716-0.0608 0.38896-0.0608 0.54698-0.12155v1.9327h-0.12155v-0.10939q0-0.53483-0.29172-0.83871t-0.8144-0.31603h-1.7503v2.9537h1.3857q0.41328-0.0122 0.66854-0.27957 0.25526-0.26741 0.25526-0.68069v-0.0851h0.12155v2.5769h-0.12155v-0.0851q0-0.5713-0.42543-0.82655-0.21879-0.13371-0.48621-0.13371h-1.3978v2.8808h1.4586q0.75362-0.0122 1.2763-0.46189 0.53483-0.4619 0.77793-1.2884h0.1094z"/>
      <path d="m70.376 118.9h3.4156v0.12155h-0.20664q-0.27957 0-0.47405 0.17017-0.18233 0.17018-0.19448 0.43759v5.3118q0 0.75362 0.09724 1.2398l0.02431 0.17017h-0.1094l-5.5792-4.9228v4.0234q0.01216 0.26741 0.19448 0.44974 0.19448 0.17017 0.47405 0.17017h0.20664v0.12155h-3.4034v-0.12155h0.19448q0.27957 0 0.47405-0.17017 0.19448-0.18233 0.19448-0.44974v-5.3483q0-0.72931-0.09724-1.2034l-0.02431-0.17017 0.1094 0.0122 5.5671 4.8985v-3.9991q0-0.26741-0.19448-0.43758-0.18233-0.18233-0.4619-0.18233h-0.20664z"/>
      <path d="m82.235 126.08h0.09724v0.12155h-3.5736v-0.12155h0.09724q0.2431 0 0.3525-0.14586 0.1094-0.14586 0.1094-0.26742 0-0.12155-0.04862-0.25525l-0.47405-1.1183h-2.5769l-0.48621 1.1304q-0.04862 0.12155-0.04862 0.25526 0 0.12155 0.1094 0.26741 0.12155 0.13371 0.36466 0.13371h0.09724v0.12155h-2.431v-0.12155h0.09724q0.25526 0 0.51052-0.15802 0.25526-0.15801 0.41328-0.47405l2.5161-5.3969q0.53483-1.2034 0.55914-1.4829h0.1094l3.2576 6.8312q0.15802 0.3525 0.41328 0.52267 0.26741 0.15802 0.53483 0.15802zm-5.8102-2.2609h2.1636l-1.0697-2.5404z"/>
    </g>
    <g>
      <path d="m46.348 110.33c-1.4472-0.55339-2.6548-1.1582-3.9094-1.8641l-0.27742-8.0304c-0.09559-1.6663 0.60544-2.4688 1.7882-1.9009 1.1827 0.57026 2.1777 2.271 2.2114 3.9073l0.1872 7.888" fill="#6e6e6e" stroke-width=".21122"/>
      <path d="m62.048 112.75c-2.1921 0.27451-4.5936 0.24183-6.752 0.0242l0.08104-8.4725c-0.04802-1.8227 1.2462-3.192 3.2164-3.1826-2.79e-4 2e-5 -2.79e-4 2e-5 0 0 1.9696 0.012 3.3865 1.3985 3.3315 3.2202" fill="#a0a0a0" stroke-width=".29123"/>
      <path d="m70.921 90.3c-1.4804-0.55607-3.7969-1.0132-4.852-0.83741 0.11123 0.71963 4.7683 1.6287 4.3996 2.6627-0.44179 1.07-2.9347 1.3181-2.2264 2.8328-2.5687 0.08247-3.2606 1.017-6.3594 1.9169-2.0644 0.59953-2.8177 0.82359-5.1522 0.9518-1.0511 0.05774-2.3898-0.18132-2.7799 0.07878 0.75092 0.71379 4.448 1.198 6.4223 1.0389 3.2132-0.25908 6.0065-1.2809 8.0741-2.2529 1.0446-0.49111 2.5488 0.04913 3.4029-0.08552-0.12906-0.32376-1.594-1.4787-0.7279-2.1163 1.4433-1.0626 3.3328-1.7127 1.8636-3.0163-0.38194-0.33887-1.2572-0.87026-2.0645-1.1735z" fill="#6e6e6e" stroke-width=".1793"/>
      <path d="m50.263 97.709c-0.26968-0.85394-4.0327-2.6114-3.6674-3.7237 0.43776-1.1508 2.3936-1.1602 1.692-2.7893 2.5438-0.08992 3.1415-0.79013 6.1474-1.86 2.03-0.72271 3.3414-0.72181 5.271-0.72181 1.9296-8.5e-5 2.3387 0.04483 2.7342-0.23462-0.72544-0.85125-4.5954-1.1382-6.5503-0.96711-3.1819 0.27865-4.8611 1.4694-7.2275 2.0306-1.1303 0.26803-2.8888 0.25685-3.8674 0.25685 0.08992 0.63373 1.3697 0.97397 0.68466 1.8561-1.201 1.5464-1.977 2.5673-1.1817 3.4758 1.6277 1.8594 3.9163 2.5549 5.965 2.6744z" fill="#6e6e6e" stroke-width="1.0502"/>
      <path d="m53.084 112.29c-1.7861-0.2702-3.4771-0.69579-4.8502-1.3054l0.0072-7.9213c-0.11798-1.7036 0.81548-2.8222 2.2753-2.6155 1.4596 0.20924 2.4604 1.6563 2.5022 3.349" fill="#8c8c8c" stroke-width=".23942"/>
      <path d="m70.691 110.33c1.4472-0.55339 2.6548-1.1582 3.9094-1.8641l0.27742-8.0304c0.09559-1.6663-0.60544-2.4688-1.7882-1.9009-1.1827 0.57026-2.1777 2.271-2.2114 3.9073l-0.1872 7.888" fill="#6e6e6e" stroke-width=".21122"/>
      <path d="m63.954 112.29c1.7861-0.2702 3.4771-0.69579 4.8502-1.3054l-0.0072-7.9213c0.11798-1.7036-0.81548-2.8222-2.2753-2.6155-1.4596 0.20924-2.4604 1.6563-2.5022 3.349" fill="#8c8c8c" stroke-width=".23942"/>
    </g>
  </g>
</svg>
